# xmcd CD database file
#
# Track frame offsets:
#	150
#	29095
#	56052
#	65130
#	106796
#	126328
#	145347
#	161307
#	187332
#	233668
#	249003
#	272360
#	305207
#
# Disc length: 4547 seconds
#
# Revision: 0
# Processed by: cddbd v1.5.2PL0 Copyright (c) Steve Scherf et al.
# Submitted via: CDex 1.70beta2
#
DISCID=bd11c10d
DTITLE=Steve Berry - The Paris Vendetta Disc 4
DYEAR=2009
DGENRE=Audio Book
TTITLE0=The Paris Vendetta Disc 4-01
TTITLE1=The Paris Vendetta Disc 4-02
TTITLE2=The Paris Vendetta Disc 4-03
TTITLE3=The Paris Vendetta Disc 4-04
TTITLE4=The Paris Vendetta Disc 4-05
TTITLE5=The Paris Vendetta Disc 4-06
TTITLE6=The Paris Vendetta Disc 4-07
TTITLE7=The Paris Vendetta Disc 4-08
TTITLE8=The Paris Vendetta Disc 4-09
TTITLE9=The Paris Vendetta Disc 4-10
TTITLE10=The Paris Vendetta Disc 4-11
TTITLE11=The Paris Vendetta Disc 4-12
TTITLE12=The Paris Vendetta Disc 4-13
EXTD=YEAR: 2009
EXTT0=
EXTT1=
EXTT2=
EXTT3=
EXTT4=
EXTT5=
EXTT6=
EXTT7=
EXTT8=
EXTT9=
EXTT10=
EXTT11=
EXTT12=
PLAYORDER=
